<svg width="33" height="33" viewBox="0 0 33 33" fill="none" xmlns="http://www.w3.org/2000/svg">
<path d="M13.3188 15.3466C13.3188 15.3466 16.4406 15.104 16.4406 11.2892C16.4406 7.46947 13.8864 5.61157 10.6491 5.61157H0V26.9395H10.6491C10.6491 26.9395 17.1518 27.1523 17.1518 20.6431C17.1501 20.6414 17.4339 15.3466 13.3188 15.3466ZM4.6926 9.39997H10.6491C10.6491 9.39997 12.0978 9.39997 12.0978 11.6176C12.0978 13.8385 11.2464 14.1602 10.2795 14.1602H4.6926V9.39997ZM10.3472 23.1478H4.6926V17.447H10.6491C10.6491 17.447 12.8073 17.4173 12.8073 20.3758C12.8073 22.8706 11.1953 23.1296 10.3472 23.1478ZM25.8209 11.0351C17.9487 11.0351 17.9553 19.2307 17.9553 19.2307C17.9553 19.2307 17.4174 27.3833 25.8209 27.3833C25.8209 27.3833 32.8218 27.8024 32.8218 21.7123H29.2215C29.2215 21.7123 29.3403 24.0074 25.9413 24.0074C25.9413 24.0074 22.3377 24.2582 22.3377 20.2949H32.9357C32.9373 20.2933 34.1055 11.0351 25.8209 11.0351ZM29.0235 17.447H22.3014C22.3014 17.447 22.7403 14.1602 25.9017 14.1602C29.0631 14.1602 29.0235 17.447 29.0235 17.447ZM29.8601 6.86392H21.417V9.49402H29.8601V6.86392Z" fill="#C9C7C7"/>
</svg>
