<svg width="33" height="33" viewBox="0 0 33 33" fill="none" xmlns="http://www.w3.org/2000/svg">
<g clip-path="url(#clip0_483_86)">
<path d="M30.25 16.5C30.2523 18.3111 29.8957 20.1047 29.2008 21.7772C28.5059 23.4496 27.4864 24.9678 26.2013 26.2439C24.9267 27.5163 23.4139 28.525 21.7493 29.2124C20.0847 29.8997 18.301 30.2523 16.5 30.25C8.90589 30.25 2.75001 24.0941 2.75001 16.5C2.7452 12.9744 4.09949 9.58249 6.53126 7.0297C7.81437 5.67574 9.36027 4.59783 11.0744 3.86196C12.7884 3.12609 14.6346 2.74772 16.5 2.75001C18.301 2.74768 20.0847 3.10028 21.7493 3.78766C23.4139 4.47505 24.9267 5.48373 26.2013 6.75607C27.4864 8.03223 28.5059 9.5504 29.2008 11.2229C29.8957 12.8953 30.2523 14.6889 30.25 16.5V16.5Z" stroke="#C9C7C7" stroke-width="4" stroke-linecap="round" stroke-linejoin="round"/>
<path d="M30.2499 16.5001C28.2438 16.5001 22.7094 15.7438 17.756 17.9184C12.3749 20.2813 8.47889 23.9464 6.78076 26.2261" stroke="#C9C7C7" stroke-width="4" stroke-linecap="round" stroke-linejoin="round"/>
<path d="M11.3438 3.74976C13.4956 5.73594 18.1912 10.7925 19.9375 15.8126C21.6837 20.8328 22.33 27.0051 22.7287 28.7617" stroke="#C9C7C7" stroke-width="4" stroke-linecap="round" stroke-linejoin="round"/>
<path d="M2.85596 14.7814C5.45333 14.9381 12.329 15.0791 16.729 13.2001C21.129 11.3212 24.9151 7.86512 26.2138 6.76855M3.78133 21.7341C4.99292 24.6669 7.17807 27.0926 9.96883 28.6029" stroke="#C9C7C7" stroke-width="4" stroke-linecap="round" stroke-linejoin="round"/>
<path d="M2.75001 16.5C2.7452 12.9744 4.09949 9.58249 6.53126 7.0297M16.5 2.75001C14.6346 2.74772 12.7884 3.12609 11.0744 3.86196C9.36027 4.59783 7.81437 5.67573 6.53126 7.0297M22 3.89401C23.5659 4.57913 24.9906 5.54967 26.2013 6.75607C27.4864 8.03223 28.5059 9.5504 29.2008 11.2229C29.8957 12.8953 30.2523 14.6889 30.25 16.5C30.25 18.1926 29.9441 19.8144 29.3838 21.3125M16.5 30.25C18.301 30.2523 20.0847 29.8997 21.7493 29.2124C23.4139 28.525 24.9267 27.5163 26.2013 26.244" stroke="#C9C7C7" stroke-width="4" stroke-linecap="round" stroke-linejoin="round"/>
</g>
<defs>
<clipPath id="clip0_483_86">
<rect width="33" height="33" fill="white"/>
</clipPath>
</defs>
</svg>
