<svg width="33" height="33" viewBox="0 0 33 33" fill="none" xmlns="http://www.w3.org/2000/svg">
<path fill-rule="evenodd" clip-rule="evenodd" d="M12.9649 12.3324H18.0716V14.8761C18.8072 13.4131 20.6938 12.0986 23.5276 12.0986C28.9603 12.0986 30.25 15.0109 30.25 20.3541V30.25H24.75V21.571C24.75 18.5281 24.0144 16.8121 22.1416 16.8121C19.5443 16.8121 18.4649 18.6615 18.4649 21.5696V30.25H12.9649V12.3324ZM3.53375 30.0163H9.03375V12.0986H3.53375V30.0163ZM9.82163 6.25625C9.82183 6.71725 9.7304 7.1737 9.55266 7.59906C9.37491 8.02442 9.1144 8.41021 8.78625 8.734C8.1213 9.39486 7.22124 9.76477 6.28375 9.7625C5.34791 9.76187 4.44993 9.3929 3.784 8.73538C3.45704 8.41048 3.19741 8.02426 3.01997 7.59884C2.84254 7.17343 2.7508 6.71718 2.75 6.25625C2.75 5.32538 3.12125 4.43438 3.78537 3.77713C4.45072 3.11872 5.34908 2.74959 6.28513 2.75C7.22288 2.75 8.12212 3.11988 8.78625 3.77713C9.449 4.43438 9.82163 5.32538 9.82163 6.25625Z" fill="#C9C7C7"/>
</svg>
